# xmcd
#
# Track frame offsets:
#	150
#	14176
#	29716
#	46937
#	62708
#	79880
#	98944
#	113843
#	130619
#	147798
#	164700
#	178324
#	196431
#	211891
#	235004
#	261361
#	277382
#
# Disc length: 3952 seconds
#
# Revision: 1
# Processed by: cddbd v1.5.1PL2 Copyright (c) Steve Scherf et al.
# Submitted via: EasyCDDAExtractor 6.5.9.5
#
DISCID=0a0f6e11
DTITLE=Various Artist - Totally Country Vol. 5
DYEAR=2006
DGENRE=Country
TTITLE0=Miranda Lambert - Kerosene
TTITLE1=Gretchen Wilson - Homewrecker
TTITLE2=Dierks Bentley - How Am I Doin'
TTITLE3=Big and Rich - Comin' to Your City
TTITLE4=Sara Evans - Suds in the Bucket
TTITLE5=Van Zant - Help Somebody
TTITLE6=Big and Rich, Cowboy Troy - I Play Chicken With the Train
TTITLE7=Montgomery Gentry - You Do Your Thing
TTITLE8=Craig Morgan - Redneck Yacht Club
TTITLE9=Keith Anderson - XXL
TTITLE10=Ray Scott - My Kind of Music
TTITLE11=Lonestar - You're Like Comin' Home
TTITLE12=Blake Shelton - Goodbye Time
TTITLE13=Jason Aldean - Hicktown
TTITLE14=Martina McBride - God's Will
TTITLE15=Andy Griggs - If Heaven
TTITLE16=Brooks and Dunn - It's Getting Better All the Time
EXTD=
EXTT0=
EXTT1=
EXTT2=
EXTT3=
EXTT4=
EXTT5=
EXTT6=
EXTT7=
EXTT8=
EXTT9=
EXTT10=
EXTT11=
EXTT12=
EXTT13=
EXTT14=
EXTT15=
EXTT16=
PLAYORDER=
